<svg xmlns="http://www.w3.org/2000/svg" viewBox="0 0 160 160" role="img" aria-labelledby="title desc">
 <title id="title">Power nap</title><desc id="desc">The same friendly purple fox sleeping peacefully, curled into its soft tail.</desc>
 <defs><linearGradient id="fur" x1=".2" y1="0" x2=".8" y2="1"><stop stop-color="#9775e8"/><stop offset="1" stop-color="#6341ac"/></linearGradient><linearGradient id="tail" x1="0" y1="0" x2="1" y2="1"><stop stop-color="#805dcc"/><stop offset="1" stop-color="#543493"/></linearGradient></defs>
 <ellipse cx="80" cy="140" rx="57" ry="7" fill="#3d286b" opacity=".12"/><ellipse cx="77" cy="112" rx="54" ry="28" fill="url(#fur)" stroke="#40246f" stroke-width="4"/>
 <path d="M103 92c34-2 48 24 31 40-15 14-44 7-64-5 23 1 39-6 45-18-9 2-18 1-26-2z" fill="url(#tail)" stroke="#40246f" stroke-width="4" stroke-linejoin="round"/><path d="M129 101c14 7 14 21 4 29-7 5-17 5-27 1 11-4 18-12 18-21z" fill="#f7f3ff"/>
 <path d="M42 80c-6-8-5-21-1-31 11 4 19 10 24 18m39 13c6-8 5-21 1-31-11 4-19 10-24 18" fill="url(#fur)" stroke="#40246f" stroke-width="4" stroke-linecap="round" stroke-linejoin="round"/><path d="M44 56c6 3 11 7 14 12l-14 7c-2-6-2-13 0-19zm58 0c-6 3-11 7-14 12l14 7c2-6 2-13 0-19z" fill="#d7c7fb"/>
 <path d="M36 74c3-14 16-23 34-23s31 9 34 23l2 18c1 18-14 31-36 31S33 110 34 92z" fill="url(#fur)" stroke="#40246f" stroke-width="4"/><path d="M40 94c4-8 12-11 20-7 4 1 7 4 10 7 3-3 6-6 10-7 8-4 16-1 20 7-3 14-14 22-30 22s-27-8-30-22z" fill="#faf8ff"/>
 <path d="M50 83c4 3 9 3 13 0m14 0c4 3 9 3 13 0" fill="none" stroke="#352057" stroke-width="3.5" stroke-linecap="round"/><path d="m64 97 6-3 6 3c-1 4-4 6-6 6s-5-2-6-6z" fill="#352057"/><path d="M70 103c-4 0-6 2-8 4m8-4c4 0 6 2 8 4" fill="none" stroke="#5e4284" stroke-width="2.3" stroke-linecap="round"/>
 <g fill="#866cc5" font-family="Segoe UI, sans-serif" font-weight="700"><text x="112" y="69" font-size="16">z</text><text x="128" y="53" font-size="21">z</text><text x="144" y="32" font-size="26">z</text></g>
</svg>
