<svg xmlns="http://www.w3.org/2000/svg" viewBox="0 0 160 160" role="img" aria-labelledby="title desc">
 <title id="title">Watchful caution</title><desc id="desc">The friendly purple fox looks gently concerned beside an amber caution badge.</desc>
 <defs><linearGradient id="fur" x1=".2" y1="0" x2=".8" y2="1"><stop stop-color="#9473e2"/><stop offset="1" stop-color="#6241a8"/></linearGradient><linearGradient id="tail" x1="0" y1="0" x2="1" y2="1"><stop stop-color="#805dcc"/><stop offset="1" stop-color="#543493"/></linearGradient></defs>
 <ellipse cx="81" cy="143" rx="48" ry="7" fill="#3d286b" opacity=".12"/><path d="M108 104c19-14 39-3 33 18-4 14-18 20-35 14 10-5 14-13 14-22-6 5-12 7-18 8z" fill="url(#tail)" stroke="#40246f" stroke-width="4"/><path d="M136 114c6 11-4 21-18 22 5-5 7-11 4-17z" fill="#f7f3ff"/>
 <path d="M53 96c-8 11-11 28-8 43h70c3-15 0-32-8-43z" fill="url(#fur)" stroke="#40246f" stroke-width="4"/><path d="M49 53c-7-8-8-23-5-34 13 3 23 10 30 19m37 15c7-8 8-23 5-34-13 3-23 10-30 19" fill="url(#fur)" stroke="#40246f" stroke-width="4" stroke-linecap="round" stroke-linejoin="round"/><path d="M48 27c7 3 13 8 18 14l-17 7c-3-7-3-14-1-21zm64 0c-7 3-13 8-18 14l17 7c3-7 3-14 1-21z" fill="#d7c7fb"/>
 <path d="M44 47c3-17 17-27 36-27s33 10 36 27l3 23c2 22-15 38-39 38S39 92 41 70z" fill="url(#fur)" stroke="#40246f" stroke-width="4"/><path d="M47 74c4-9 13-13 22-9 4 2 7 5 11 9 4-4 7-7 11-9 9-4 18 0 22 9-2 18-15 28-33 28S49 92 47 74z" fill="#faf8ff"/>
 <ellipse cx="62" cy="63" rx="6" ry="7" fill="#2f1b55"/><ellipse cx="98" cy="63" rx="6" ry="7" fill="#2f1b55"/><circle cx="60" cy="60" r="2" fill="#fff"/><circle cx="96" cy="60" r="2" fill="#fff"/><path d="m74 77 6-3 6 3c-1 5-4 7-6 7s-5-2-6-7z" fill="#352057"/><path d="M80 84v3m-9 4c5-4 13-4 18 0" fill="none" stroke="#5e4284" stroke-width="2.5" stroke-linecap="round"/><path d="M69 105c2 8 6 13 11 17 5-4 9-9 11-17l-11 4z" fill="#f7f3ff"/>
 <circle cx="109" cy="119" r="10" fill="#fff4dd" stroke="#d58c29" stroke-width="3"/><path d="M109 113v7" stroke="#b46c16" stroke-width="3" stroke-linecap="round"/><circle cx="109" cy="125" r="1.7" fill="#b46c16"/>
</svg>
